<svg width="168" height="25" viewBox="0 0 168 25" fill="none" xmlns="http://www.w3.org/2000/svg">
<path d="M6.91553 24.7627C5.70719 24.7627 4.60303 24.4554 3.60303 23.8408C2.61344 23.2262 1.82178 22.4137 1.22803 21.4033C0.634277 20.3825 0.337402 19.2523 0.337402 18.0127V16.4658C0.337402 16.3617 0.394694 16.3096 0.509277 16.3096H4.2749C4.35824 16.3096 4.3999 16.3617 4.3999 16.4658V18.0127C4.3999 18.7523 4.64469 19.3877 5.13428 19.9189C5.63428 20.4398 6.22803 20.7002 6.91553 20.7002C7.61344 20.7002 8.20719 20.4346 8.69678 19.9033C9.19678 19.3617 9.44678 18.7314 9.44678 18.0127C9.44678 17.1898 8.91032 16.4762 7.8374 15.8721C7.47282 15.6637 6.91032 15.3512 6.1499 14.9346C5.38949 14.5075 4.67074 14.1012 3.99365 13.7158C2.76449 12.9971 1.85303 12.096 1.25928 11.0127C0.665527 9.92936 0.368652 8.7054 0.368652 7.34082C0.368652 6.0804 0.670736 4.9554 1.2749 3.96582C1.87907 2.96582 2.68115 2.17415 3.68115 1.59082C4.68115 1.00749 5.75928 0.71582 6.91553 0.71582C8.10303 0.71582 9.19678 1.0127 10.1968 1.60645C11.1968 2.2002 11.9937 2.99707 12.5874 3.99707C13.1812 4.98665 13.478 6.10124 13.478 7.34082V10.0908C13.478 10.1846 13.4312 10.2314 13.3374 10.2314H9.57178C9.48844 10.2314 9.44678 10.1846 9.44678 10.0908L9.41553 7.34082C9.41553 6.54915 9.16553 5.90853 8.66553 5.41895C8.17594 4.92936 7.59261 4.68457 6.91553 4.68457C6.22803 4.68457 5.63428 4.9502 5.13428 5.48145C4.64469 6.00228 4.3999 6.62207 4.3999 7.34082C4.3999 8.0804 4.55615 8.69499 4.86865 9.18457C5.18115 9.67415 5.75407 10.1429 6.5874 10.5908C6.70199 10.6637 6.92074 10.7835 7.24365 10.9502C7.56657 11.1169 7.91553 11.3096 8.29053 11.5283C8.67594 11.7367 9.01969 11.9189 9.32178 12.0752C9.62386 12.2314 9.81136 12.3304 9.88428 12.3721C10.9989 12.9971 11.8791 13.7679 12.5249 14.6846C13.1812 15.5908 13.5093 16.7002 13.5093 18.0127C13.5093 19.2939 13.2124 20.445 12.6187 21.4658C12.0249 22.4867 11.228 23.2939 10.228 23.8877C9.23844 24.471 8.13428 24.7627 6.91553 24.7627ZM22.078 24.7627C20.8697 24.7627 19.7655 24.4554 18.7655 23.8408C17.7655 23.2262 16.9634 22.4137 16.3593 21.4033C15.7551 20.3825 15.453 19.2523 15.453 18.0127L15.4843 7.37207C15.4843 6.1429 15.7811 5.02311 16.3749 4.0127C16.9686 3.00228 17.7707 2.19499 18.7811 1.59082C19.7915 0.986654 20.8905 0.68457 22.078 0.68457C23.2863 0.68457 24.3801 0.986654 25.3593 1.59082C26.3488 2.19499 27.1405 3.00228 27.7343 4.0127C28.328 5.02311 28.6249 6.1429 28.6249 7.37207L28.6561 18.0127C28.6561 19.2523 28.3593 20.3825 27.7655 21.4033C27.1718 22.4137 26.3749 23.2262 25.3749 23.8408C24.3853 24.4554 23.2863 24.7627 22.078 24.7627ZM22.078 20.7002C22.7447 20.7002 23.328 20.4294 23.828 19.8877C24.3384 19.3356 24.5936 18.7106 24.5936 18.0127L24.5624 7.37207C24.5624 6.63249 24.328 6.00749 23.8593 5.49707C23.3905 4.97624 22.7968 4.71582 22.078 4.71582C21.3801 4.71582 20.7811 4.97103 20.2811 5.48145C19.7915 5.98145 19.5468 6.61165 19.5468 7.37207V18.0127C19.5468 18.7523 19.7915 19.3877 20.2811 19.9189C20.7811 20.4398 21.3801 20.7002 22.078 20.7002ZM31.3522 24.4346C31.2584 24.4346 31.2115 24.3773 31.2115 24.2627L31.2428 1.21582C31.2428 1.11165 31.3001 1.05957 31.4147 1.05957H35.149C35.2532 1.05957 35.3053 1.11165 35.3053 1.21582L35.274 20.3096H42.1959C42.3105 20.3096 42.3678 20.3617 42.3678 20.4658V24.2627C42.3678 24.3773 42.3105 24.4346 42.1959 24.4346H31.3522Z" fill="#6FA8DC"/>
<path d="M43.4077 24.2627L47.564 1.18457C47.5952 1.10124 47.6525 1.05957 47.7358 1.05957H52.6108C52.7046 1.05957 52.7619 1.10124 52.7827 1.18457L56.7827 24.2627C56.8035 24.3773 56.7567 24.4346 56.6421 24.4346H52.9077C52.8244 24.4346 52.7723 24.3773 52.7515 24.2627L52.3765 21.8096H47.814L47.439 24.2627C47.4181 24.3773 47.3608 24.4346 47.2671 24.4346H43.5327C43.4494 24.4346 43.4077 24.3773 43.4077 24.2627ZM48.4858 18.2158H51.7046L50.3296 8.77832L50.1265 7.54395L49.9858 8.77832L48.4858 18.2158ZM59.0334 24.4346C58.9397 24.4346 58.8928 24.3773 58.8928 24.2627L58.9553 1.18457C58.9553 1.10124 59.0022 1.05957 59.0959 1.05957H65.8772C67.0855 1.05957 68.2001 1.35645 69.2209 1.9502C70.2418 2.54395 71.0543 3.34082 71.6584 4.34082C72.2626 5.3304 72.5647 6.4502 72.5647 7.7002C72.5647 8.53353 72.4397 9.28353 72.1897 9.9502C71.9501 10.6064 71.6584 11.1637 71.3147 11.6221C70.9814 12.0804 70.6793 12.4189 70.4084 12.6377C71.6272 13.9814 72.2366 15.5648 72.2366 17.3877L72.2678 24.2627C72.2678 24.3773 72.2105 24.4346 72.0959 24.4346H68.2991C68.2053 24.4346 68.1584 24.4033 68.1584 24.3408V17.3877C68.1584 16.5752 67.872 15.8721 67.2991 15.2783C66.7366 14.6846 66.0387 14.3877 65.2053 14.3877H62.9866L62.9553 24.2627C62.9553 24.3773 62.9137 24.4346 62.8303 24.4346H59.0334ZM62.9866 10.3564H65.8772C66.5751 10.3564 67.1897 10.1012 67.7209 9.59082C68.2626 9.06999 68.5334 8.43978 68.5334 7.7002C68.5334 6.99186 68.2678 6.38249 67.7366 5.87207C67.2157 5.35124 66.5959 5.09082 65.8772 5.09082H62.9866V10.3564ZM75.2256 24.4346C75.1318 24.4346 75.085 24.3773 75.085 24.2627L75.1475 1.18457C75.1475 1.10124 75.1943 1.05957 75.2881 1.05957H81.7412C83.012 1.05957 84.1527 1.36686 85.1631 1.98145C86.1735 2.59603 86.9704 3.40853 87.5537 4.41895C88.137 5.41895 88.4287 6.5127 88.4287 7.7002C88.4287 8.66895 88.21 9.56999 87.7725 10.4033C87.335 11.2262 86.8141 11.8929 86.21 12.4033C86.8558 13.0596 87.3558 13.8148 87.71 14.6689C88.0745 15.5127 88.2568 16.4033 88.2568 17.3408C88.2568 18.6429 87.9391 19.8304 87.3037 20.9033C86.6787 21.9762 85.835 22.8356 84.7725 23.4814C83.71 24.1169 82.5277 24.4346 81.2256 24.4346H75.2256ZM79.1787 10.3252H81.7412C82.5225 10.3252 83.1527 10.0544 83.6318 9.5127C84.111 8.96061 84.3506 8.35645 84.3506 7.7002C84.3506 6.99186 84.0902 6.37207 83.5693 5.84082C83.0589 5.30957 82.4495 5.04395 81.7412 5.04395H79.1787V10.3252ZM79.1475 20.3408H81.2256C82.0381 20.3408 82.736 20.0439 83.3193 19.4502C83.9027 18.8564 84.1943 18.1533 84.1943 17.3408C84.1943 16.5387 83.9027 15.846 83.3193 15.2627C82.736 14.6794 82.0381 14.3877 81.2256 14.3877H79.1787L79.1475 20.3408ZM90.8443 24.4346C90.7297 24.4346 90.6724 24.3773 90.6724 24.2627L90.7037 1.18457C90.7037 1.10124 90.7505 1.05957 90.8443 1.05957H94.6099C94.6933 1.05957 94.7349 1.10124 94.7349 1.18457L94.7662 24.2627C94.7662 24.3773 94.7245 24.4346 94.6412 24.4346H90.8443ZM101.086 24.4346C100.993 24.4346 100.946 24.3773 100.946 24.2627V5.12207H96.5865C96.4719 5.12207 96.4146 5.06478 96.4146 4.9502L96.4459 1.18457C96.4459 1.10124 96.4927 1.05957 96.5865 1.05957H109.352C109.467 1.05957 109.524 1.10124 109.524 1.18457V4.9502C109.524 5.06478 109.477 5.12207 109.383 5.12207H104.977L105.024 24.2627C105.024 24.3773 104.977 24.4346 104.883 24.4346H101.086ZM111.305 24.4346C111.211 24.4346 111.165 24.3773 111.165 24.2627L111.227 1.18457C111.227 1.10124 111.274 1.05957 111.368 1.05957H118.149C119.357 1.05957 120.472 1.35645 121.493 1.9502C122.514 2.54395 123.326 3.34082 123.93 4.34082C124.534 5.3304 124.836 6.4502 124.836 7.7002C124.836 8.53353 124.711 9.28353 124.461 9.9502C124.222 10.6064 123.93 11.1637 123.586 11.6221C123.253 12.0804 122.951 12.4189 122.68 12.6377C123.899 13.9814 124.508 15.5648 124.508 17.3877L124.54 24.2627C124.54 24.3773 124.482 24.4346 124.368 24.4346H120.571C120.477 24.4346 120.43 24.4033 120.43 24.3408V17.3877C120.43 16.5752 120.144 15.8721 119.571 15.2783C119.008 14.6846 118.31 14.3877 117.477 14.3877H115.258L115.227 24.2627C115.227 24.3773 115.185 24.4346 115.102 24.4346H111.305ZM115.258 10.3564H118.149C118.847 10.3564 119.461 10.1012 119.993 9.59082C120.534 9.06999 120.805 8.43978 120.805 7.7002C120.805 6.99186 120.54 6.38249 120.008 5.87207C119.487 5.35124 118.868 5.09082 118.149 5.09082H115.258V10.3564ZM126.216 24.2627L130.372 1.18457C130.404 1.10124 130.461 1.05957 130.544 1.05957H135.419C135.513 1.05957 135.57 1.10124 135.591 1.18457L139.591 24.2627C139.612 24.3773 139.565 24.4346 139.45 24.4346H135.716C135.633 24.4346 135.581 24.3773 135.56 24.2627L135.185 21.8096H130.622L130.247 24.2627C130.226 24.3773 130.169 24.4346 130.075 24.4346H126.341C126.258 24.4346 126.216 24.3773 126.216 24.2627ZM131.294 18.2158H134.513L133.138 8.77832L132.935 7.54395L132.794 8.77832L131.294 18.2158ZM147.136 24.7627C145.928 24.7627 144.829 24.4606 143.839 23.8564C142.86 23.2523 142.074 22.445 141.48 21.4346C140.886 20.4137 140.589 19.2731 140.589 18.0127V7.37207C140.589 6.16374 140.886 5.04915 141.48 4.02832C142.074 3.00749 142.865 2.19499 143.855 1.59082C144.855 0.986654 145.949 0.68457 147.136 0.68457C148.376 0.68457 149.49 0.981445 150.48 1.5752C151.48 2.16895 152.272 2.97103 152.855 3.98145C153.438 4.98145 153.73 6.11165 153.73 7.37207V8.91895C153.73 9.00228 153.673 9.04395 153.558 9.04395H149.792C149.709 9.04395 149.667 9.00228 149.667 8.91895V7.6377C149.667 6.78353 149.423 6.0804 148.933 5.52832C148.454 4.96582 147.855 4.68457 147.136 4.68457C146.49 4.68457 145.912 4.9554 145.402 5.49707C144.902 6.02832 144.652 6.65332 144.652 7.37207V18.0127C144.652 18.7523 144.897 19.3877 145.386 19.9189C145.886 20.4398 146.47 20.7002 147.136 20.7002C147.855 20.7002 148.454 20.445 148.933 19.9346C149.423 19.4137 149.667 18.7731 149.667 18.0127V16.3721H147.308C147.194 16.3721 147.136 16.3148 147.136 16.2002V12.4346C147.136 12.3304 147.194 12.2783 147.308 12.2783H153.589C153.683 12.2783 153.73 12.3304 153.73 12.4346V18.0127C153.73 19.2731 153.433 20.4137 152.839 21.4346C152.246 22.445 151.454 23.2523 150.464 23.8564C149.485 24.4606 148.376 24.7627 147.136 24.7627ZM156.253 24.4346C156.16 24.4346 156.113 24.3773 156.113 24.2627L156.144 1.18457C156.144 1.10124 156.191 1.05957 156.285 1.05957H167.066C167.149 1.05957 167.191 1.11165 167.191 1.21582V4.98145C167.191 5.0752 167.149 5.12207 167.066 5.12207H160.175V10.3564H167.066C167.149 10.3564 167.191 10.4033 167.191 10.4971L167.238 14.2939C167.238 14.3773 167.191 14.4189 167.097 14.4189H160.175V20.3096H167.097C167.191 20.3096 167.238 20.3617 167.238 20.4658V24.2939C167.238 24.3877 167.191 24.4346 167.097 24.4346H156.253Z" fill="#674EA7"/>
</svg>